PathFileType	4	(X/Y/Z)	 s06c0101.trc
DataRate	CameraRate	NumFrames	NumMarkers	Units	OrigDataRate	OrigDataStartFrame	OrigNumFrames
200	200	4	49	mm	200	501	2000
Frame#	Time	racr			lacr			c7			jug			rlel			rdr			llel			ldr			s2			lic			ric			lasi			rasi			rpsi			lpsi			rgt			lgt			rth1			rth2			rth3			rth4			rlfc			rmfc			rsh1			rsh2			rsh3			rsh4			rlmal			rmmal			rcal			rtoe			rmt5			lth1			lth2			lth4			lth3			llfc			lmfc			llmal			lcal			lmt5			lsh1			lsh2			lsh3			lsh4			ltoe			SBIKE			LBIKE			RBIKE			
		X1	Y1	Z1	X2	Y2	Z2	X3	Y3	Z3	X4	Y4	Z4	X5	Y5	Z5	X6	Y6	Z6	X7	Y7	Z7	X8	Y8	Z8	X9	Y9	Z9	X10	Y10	Z10	X11	Y11	Z11	X12	Y12	Z12	X13	Y13	Z13	X14	Y14	Z14	X15	Y15	Z15	X16	Y16	Z16	X17	Y17	Z17	X18	Y18	Z18	X19	Y19	Z19	X20	Y20	Z20	X21	Y21	Z21	X22	Y22	Z22	X23	Y23	Z23	X24	Y24	Z24	X25	Y25	Z25	X26	Y26	Z26	X27	Y27	Z27	X28	Y28	Z28	X29	Y29	Z29	X30	Y30	Z30	X31	Y31	Z31	X32	Y32	Z32	X33	Y33	Z33	X34	Y34	Z34	X35	Y35	Z35	X36	Y36	Z36	X37	Y37	Z37	X38	Y38	Z38	X39	Y39	Z39	X40	Y40	Z40	X41	Y41	Z41	X42	Y42	Z42	X43	Y43	Z43	X44	Y44	Z44	X45	Y45	Z45	X46	Y46	Z46	X47	Y47	Z47	X48	Y48	Z48	X49	Y49	Z49	
501	2.5050	504.583508	1281.581064	-60.292544	510.515672	1281.909290	-352.510812	506.597584	1352.985499	-208.732171	495.094491	1195.033246	-206.779478	519.696936	1047.590258	65.625082	709.085247	931.108311	-35.351040	499.493505	1038.132780	-471.480531	705.738336	930.243107	-407.046399	-41.082025	1158.481044	-206.507759	125.193054	1130.183745	-384.774656	104.690537	1116.797115	-56.341419	137.162010	1078.108673	-351.898207	135.780120	1082.946592	-88.028956	-3.967063	1200.359308	-182.915928	-8.856197	1194.876036	-243.798546	82.941855	1044.021625	-30.131587	89.327876	1076.962750	-421.019464	167.707376	945.660175	-14.612288	237.498439	887.784749	-20.251974	268.000551	806.308771	-29.530113	265.595872	910.617794	-34.552188	312.821019	709.879693	-44.741585	304.288420	685.937348	-154.287871	298.421583	586.021640	-21.341348	308.661301	501.398705	-42.914524	278.030263	420.476551	-48.014059	330.187497	503.800936	-77.524990	259.516198	338.856902	-54.439362	291.158661	347.620594	-149.735488	196.674808	311.447212	-101.986823	471.838339	279.281755	-101.858079	373.514332	264.693303	-32.954778	151.721381	980.908301	-431.965366	230.174973	943.393844	-428.085299	253.012142	969.455385	-414.937778	281.220088	870.047771	-429.359068	325.412135	765.098799	-406.931027	329.770442	748.526803	-292.340648	52.852370	518.587157	-372.231536	-13.638885	544.242545	-321.625619	89.179190	380.025504	-402.475639	256.370765	679.784100	-421.837565	208.697988	612.260177	-394.644489	131.659668	569.879113	-392.276148	228.744077	599.353309	-363.823817	155.440883	319.927467	-348.174944	-203.493684	870.631252	-212.418360	-48.659861	84.069344	-419.612352	-50.071454	79.737212	-22.285798	
502	2.5100	506.067913	1281.777155	-59.697424	512.081813	1282.866489	-352.085065	508.070337	1353.442152	-207.808056	496.601537	1195.328693	-206.520275	520.612269	1047.706155	66.050878	709.643256	930.815647	-35.294342	500.695597	1039.217204	-470.547373	706.340675	930.393396	-406.499383	-39.470090	1159.343547	-207.559619	127.271334	1131.518437	-384.555249	106.103473	1117.567400	-56.218518	139.340005	1079.477264	-351.096052	137.707369	1083.762432	-87.416222	-0.779192	1200.367986	-183.951017	-7.778561	1196.195345	-243.750114	84.029354	1044.656892	-30.264671	92.357142	1078.648569	-420.806492	166.950620	944.222638	-14.044389	235.412922	885.005151	-19.037661	264.590197	802.939384	-27.853353	264.348046	907.491533	-32.615614	308.418096	705.256074	-42.616924	300.653234	681.815749	-152.322471	294.858937	581.590275	-19.633578	306.051726	497.125377	-41.343548	276.263401	415.907351	-46.795594	327.682982	499.940648	-75.569108	259.084818	334.208738	-53.649155	290.913105	342.620724	-148.488797	196.515071	307.920287	-101.651529	470.161501	269.522342	-102.025505	371.796530	257.231158	-32.763515	154.807075	983.976292	-431.329905	233.907051	947.673003	-427.455117	256.214861	973.720868	-413.860238	285.987782	874.851898	-429.507419	330.997506	770.363770	-406.910675	335.123960	753.764006	-292.165405	56.651053	526.030308	-372.290996	-9.906182	552.007400	-321.657757	92.570591	387.397534	-402.176580	261.812712	685.433879	-421.741498	213.553839	618.354914	-394.404738	136.371291	576.548890	-392.162411	233.259984	605.380882	-363.427612	158.405558	327.001553	-348.051808	-203.477850	870.611826	-212.241311	-48.645600	84.119732	-419.625536	-50.059217	79.764971	-22.259075	
503	2.5150	507.473472	1281.993554	-59.118412	513.711826	1283.837663	-351.467783	509.558544	1354.009817	-207.039943	498.051739	1195.722884	-206.281321	521.576090	1047.844267	66.301861	710.337880	930.460796	-35.227845	501.998807	1040.257730	-469.177020	707.017796	930.513563	-405.783203	-37.361410	1160.579307	-209.512603	129.245185	1132.784597	-384.285206	107.408680	1118.244714	-56.228496	141.633707	1081.024674	-350.867154	139.194433	1084.546053	-87.330023	0.897698	1200.805680	-184.060738	-5.981804	1197.025369	-243.985478	85.084990	1045.110294	-30.583103	95.403774	1080.298200	-420.555305	166.040425	942.820324	-13.351524	233.326491	882.225301	-17.652174	261.019957	799.623306	-26.128394	262.970708	904.100563	-30.707441	304.293707	700.999757	-40.394389	297.133973	677.500892	-150.347661	291.112811	577.321079	-17.935816	303.294491	492.983958	-39.576004	274.182826	411.433279	-45.545643	325.133151	496.053986	-73.649088	258.506193	329.681689	-52.671665	290.713901	337.799743	-147.136030	195.551348	305.128661	-100.569721	468.125374	260.057424	-102.149713	369.807149	249.816236	-32.475861	158.090084	987.140289	-430.713998	237.645662	951.883305	-426.862693	259.501969	978.021810	-412.781764	290.716911	879.680211	-429.407388	336.690371	775.675958	-406.805997	340.511860	759.007200	-291.975726	60.674651	533.197370	-372.297253	-5.966163	559.598854	-322.012920	96.171745	394.550891	-402.078519	267.270421	690.936630	-421.497165	218.441764	624.383724	-394.123248	141.047260	583.021215	-392.091514	237.971994	611.446088	-362.970855	161.762349	334.143327	-347.876467	-203.462713	870.670183	-212.093730	-48.614649	84.177280	-419.617184	-50.027478	79.805757	-22.237549	
504	2.5200	508.651394	1282.139386	-59.213240	515.395831	1284.859668	-350.793475	511.037202	1354.690257	-206.231752	499.357863	1196.149609	-206.112376	522.654987	1047.987008	66.406474	711.096141	930.088526	-35.213931	503.338582	1041.256053	-467.583831	707.654906	930.714572	-405.117164	-35.389906	1161.354052	-210.769921	131.172103	1134.006166	-384.140338	108.827959	1118.907249	-56.269849	143.901241	1082.540491	-350.364194	140.788049	1085.273203	-87.236015	2.854448	1201.377580	-184.396893	-7.670062	1198.276337	-243.501503	85.988875	1045.350674	-30.933719	98.347608	1082.015006	-420.193524	165.014059	941.408360	-12.640986	231.577868	879.329426	-16.209586	257.131122	796.183021	-24.760721	261.088631	900.823272	-28.809912	299.503903	696.863494	-38.577536	293.481552	673.201620	-148.413608	287.158231	573.061838	-16.295885	300.248125	488.931995	-37.863789	272.023636	407.143583	-44.173988	322.449100	492.201581	-71.630057	257.644995	325.321416	-51.717894	290.203186	333.307916	-145.484773	194.375666	302.598713	-99.474242	465.733363	250.511165	-102.288641	367.397525	242.537698	-32.129485	161.439190	990.324520	-430.290455	241.475855	956.065332	-426.325532	262.894337	982.292179	-411.779574	295.461469	884.589495	-429.154990	342.304325	780.992862	-406.507796	347.018154	765.016724	-291.659409	64.854461	540.357431	-372.330021	-2.045116	566.835330	-322.071617	100.045382	401.709456	-401.973002	272.744480	696.542018	-421.109687	223.420607	630.352350	-393.733530	145.781600	589.418566	-391.950902	242.684570	617.437130	-362.404652	165.528681	341.247252	-347.622492	-203.439138	870.726628	-211.935872	-48.574242	84.240539	-419.594579	-49.990487	79.814668	-22.215356	
